<svg xmlns="http://www.w3.org/2000/svg" width="1024" height="1024" fill="#2E5266"><path d="M632 240c41.68-1.22 83.182 4.592 119.383 26.469 2.592 1.637 2.592 1.637 5.617 2.531q1.53 1.47 3 3l2 1c1.148 1.148 2.294 2.3 3.426 3.465 2.538 2.475 5.278 4.715 8 6.984L775 285v2l3 1a108 108 0 0 1 5.188 6.25l1.477 1.913c19.098 25.098 27.152 54.128 27.523 85.4l.04 2.133c.002 1.77-.105 3.539-.228 5.304l-2 2-2-2a128 128 0 0 0-9.04-.227h-2.838c-3.106 0-6.211.016-9.317.032l-6.449.008c-5.665.008-11.33.028-16.995.05-5.778.02-11.556.03-17.334.04-11.342.02-22.685.055-34.027.097l-.378-3.694-.517-4.872c-.08-.8-.162-1.601-.246-2.426-1.43-13.312-5.638-25.406-15.547-34.82-16.986-13.603-40.608-15.971-61.601-13.97-14.797 1.914-28.772 6.919-38.336 18.821-8.968 12.79-11.288 28.727-9.082 43.988 2.573 13.947 9.006 25.798 20.707 33.973 21.175 13.546 46.25 21.652 69.457 31.008 76.82 30.99 76.82 30.99 106.543 57.992l2.11 1.89c23.485 22.193 34.988 56.584 36.18 88.173.789 37.16-8.16 74.589-33.29 102.937l-1.293 1.492c-6.33 7.295-12.97 13.671-20.707 19.508l-2.422 1.828C733.091 752.946 695.378 763.266 658 764l-2.402.062c-50.322 1.174-99.67-11.054-137.266-45.796-7.132-6.929-12.977-14.342-18.484-22.578-1.73-2.692-1.73-2.692-3.848-4.688a77 77 0 0 1-2.023-4l-1.151-2.427-1.201-2.573-1.222-2.599C487.73 673.68 485.18 667.931 483 662h-2l-1-3h2l-.875-3.691-1.125-4.871-.578-2.424c-1.097-4.797-1.633-9.094-1.422-14.014l-2-1q-.042-6.22-.062-12.437l-.026-3.588-.01-3.409-.016-3.158C476 608 476 608 477 607c3.166-.095 6.31-.126 9.477-.114h3.015c3.306 0 6.612.009 9.918.016l6.856.005q9.043.006 18.086.024 9.22.014 18.439.02 18.105.016 36.209.049c1.033 3.099 1.176 5.81 1.29 9.055.633 17.744 4.744 31.307 17.71 43.945 9.909 9.13 21.823 12.231 35 12l-1 2c10.93 1.41 21.83 1.194 32.813.625l2.121-.093c1.695-.102 3.383-.308 5.066-.532l1-2c1.863-.457 1.863-.457 4.313-.812C691.976 668.464 703.03 660.743 712 649c7.18-11.21 9.352-25.103 6.938-38.062-4.863-19.645-17.672-30.869-34.258-40.958-11.09-6.201-22.904-10.888-34.635-15.724a1447 1447 0 0 1-7.936-3.303c-8.57-3.582-17.215-6.914-25.923-10.142C582.105 528.164 549.435 515.774 523 490l-1.937-1.75c-5.144-4.763-8.952-10.505-12.926-16.238-1.975-2.961-1.975-2.961-4.137-5.012l-2-3a101 101 0 0 0-3-3h2l-1.39-2.422C490 441.378 490 441.378 490 432l-2-1c-1.054-3.916-1.46-7.986-2-12l-.266-1.96c-1.718-12.975-2.304-25.966-2.734-39.04h2l-1-11h2l-.129-2.91c.008-4.683 1.043-9.007 2.192-13.527l.672-2.655c2.232-8.404 5.408-16.134 9.265-23.908l1.688-3.457C505.763 308.688 513.89 298.653 523 289l2.04-2.234c9.015-9.523 19.919-16.738 31.148-23.391l2.177-1.29c5.146-2.973 5.146-2.973 7.796-3.579L568 258l1-2c2.028-.734 4.065-1.45 6.125-2.09a158 158 0 0 0 6-2.039c14.503-5.164 31.325-10.172 46.813-9.934l2.34.028L632 242z"/><path d="M260.027 242.867q2.67 0 5.338-.003 5.499-.002 10.998.006 7.058.006 14.115-.004 5.467-.005 10.935 0l5.214-.002a2131 2131 0 0 1 7.205.007l2.17-.007c4.884.022 4.884.022 5.998 1.136a150 150 0 0 1 .123 6.682l.004 2.153q.002 3.615-.007 7.23l.003 5.2q.002 7.18-.007 14.36-.005 7.728-.002 15.457 0 13.403-.008 26.806-.011 19.379-.012 38.757-.004 31.437-.019 62.874-.014 30.546-.02 61.093v3.8l-.005 18.877Q322.034 585.644 322 664h145l4 17c1.018 3.303 2.03 6.473 3.25 9.688l.88 2.362c2.872 7.442 6.631 14.201 10.87 20.95h2l.23 2.156c.974 3.599 2.662 5.523 5.082 8.344l2.364 2.781L498 730l2.105 2.719c1.868 2.47 1.868 2.47 4.895 4.281v2l1.59.688c3.25 1.77 6.073 4.03 8.973 6.312 3.095 2.421 6.164 4.818 9.437 7l3-1v5l-6 2v-2h-85l-1 3-6-1v-1l-54-1v2l-2-1h-37l-121-1V244c14.718-.613 29.317-1.153 44.027-1.133"/></svg>